<svg id="Capa_1" data-name="Capa 1" xmlns="http://www.w3.org/2000/svg" viewBox="0 0 21.55 22.87"><defs><style>.cls-1{fill:#3e85ad;}</style></defs><title>recursos Molitalia</title><path class="cls-1" d="M21.43,6.19,15.6.13A.44.44,0,0,0,15.29,0H6.6A1.76,1.76,0,0,0,4.84,1.76V7.92H1.32A1.32,1.32,0,0,0,0,9.24v6.6a1.33,1.33,0,0,0,1.32,1.32H4.84v4A1.76,1.76,0,0,0,6.6,22.87H19.79a1.75,1.75,0,0,0,1.76-1.75V6.5A.43.43,0,0,0,21.43,6.19Zm-6-5,4.78,5H15.4ZM1.32,16.28a.44.44,0,0,1-.44-.44V9.24a.44.44,0,0,1,.44-.44H13.2a.44.44,0,0,1,.44.44v6.6a.44.44,0,0,1-.44.44Zm19.35,4.84a.87.87,0,0,1-.88.87H6.6a.87.87,0,0,1-.88-.87v-4H13.2a1.33,1.33,0,0,0,1.32-1.32V9.24A1.33,1.33,0,0,0,13.2,7.92H5.72V1.76A.88.88,0,0,1,6.6.88h7.92V6.6A.44.44,0,0,0,15,7h5.71V21.12Z"/><path class="cls-1" d="M5.26,11.16a1,1,0,0,0-.54-.37,5.53,5.53,0,0,0-.91,0H2.58v3.78h.77V13.09h.49a5.26,5.26,0,0,0,.8-.05A1.14,1.14,0,0,0,5,12.86a1,1,0,0,0,.32-.37,1.2,1.2,0,0,0,.13-.59A1.23,1.23,0,0,0,5.26,11.16Zm-.65,1a.5.5,0,0,1-.24.19,2,2,0,0,1-.61.06H3.35V11.38h.36c.28,0,.46,0,.55,0a.56.56,0,0,1,.31.17.49.49,0,0,1,.12.34A.55.55,0,0,1,4.61,12.2Z"/><path class="cls-1" d="M9.15,11.77a1.69,1.69,0,0,0-.37-.61,1.22,1.22,0,0,0-.56-.35,2.71,2.71,0,0,0-.72-.07H6.1v3.78H7.54a2.4,2.4,0,0,0,.67-.08,1.4,1.4,0,0,0,.54-.31,1.67,1.67,0,0,0,.4-.66,2.47,2.47,0,0,0,.12-.81A2.86,2.86,0,0,0,9.15,11.77ZM8.4,13.32a.76.76,0,0,1-.2.37.71.71,0,0,1-.3.15,1.79,1.79,0,0,1-.47,0H6.86v-2.5h.35a4,4,0,0,1,.62,0,.72.72,0,0,1,.36.18A.88.88,0,0,1,8.4,12a2.25,2.25,0,0,1,.08.67A2.51,2.51,0,0,1,8.4,13.32Z"/><polygon class="cls-1" points="12.51 11.38 12.51 10.74 9.92 10.74 9.92 14.52 10.68 14.52 10.68 12.91 12.26 12.91 12.26 12.27 10.68 12.27 10.68 11.38 12.51 11.38"/></svg>