<svg id="Capa_1" data-name="Capa 1" xmlns="http://www.w3.org/2000/svg" viewBox="0 0 21.42 16.3"><defs><style>.cls-1{fill:#3e85ad;}</style></defs><title>recursos Molitalia</title><path class="cls-1" d="M20.72,0H.7A.7.7,0,0,0,0,.7V15.6a.7.7,0,0,0,.7.7h20a.7.7,0,0,0,.7-.7V.7A.7.7,0,0,0,20.72,0ZM20,14.9H1.4V5.57H20V14.9ZM20,4.18H1.4V1.4H20V4.18Z"/><path class="cls-1" d="M18.56,1.76a.93.93,0,1,0,.93.93A.93.93,0,0,0,18.56,1.76Z"/><path class="cls-1" d="M16,1.76a.93.93,0,1,0,.93.93A.93.93,0,0,0,16,1.76Z"/><path class="cls-1" d="M13.48,1.76a.93.93,0,1,0,.93.93A.93.93,0,0,0,13.48,1.76Z"/><path class="cls-1" d="M9.85,9.71l-2.29-2a.7.7,0,0,0-.9,1.06l1.66,1.42L6.66,11.65a.7.7,0,1,0,.9,1.06l2.29-1.94A.69.69,0,0,0,9.85,9.71Z"/><path class="cls-1" d="M14.31,11.48H11.55a.7.7,0,1,0,0,1.4h2.76a.7.7,0,0,0,0-1.4Z"/></svg>